<?xml version="1.0" encoding="UTF-8"?>
<svg width="421.371681px" height="89px" viewBox="0 0 421.371681 89" version="1.1" xmlns="http://www.w3.org/2000/svg" xmlns:xlink="http://www.w3.org/1999/xlink">
    <title>eikonica</title>
    <g id="home-page-eikonica-scroll-horizontal" stroke="none" stroke-width="1" fill="none" fill-rule="evenodd">
        <g id="Small" transform="translate(-69, -717)" fill="#FFFFFF" fill-rule="nonzero">
            <g id="contact-copy" transform="translate(67, 717)">
                <g id="eikonica" transform="translate(2, 0)">
                    <path d="M54.4898429,43.3370014 L54.4898429,57.6602476 C54.4898429,60.3535076 52.2707996,62.434663 49.6819156,62.434663 L15.2867433,62.434663 C12.5745791,62.434663 10.478816,64.6382393 10.478816,67.2090784 L10.478816,70.6368638 C10.478816,71.8610729 10.9719367,73.085282 11.834898,74.0646492 L16.0264244,78.2269601 C16.8893857,79.0839065 18.1221876,79.5735901 19.4782697,79.5735901 L36.9840563,79.5735901 C38.2168582,79.5735901 39.4496601,79.0839065 40.4359016,78.2269601 L44.1343072,74.5543329 C45.98351,72.7180193 49.0655147,72.7180193 50.9147175,74.5543329 L50.9147175,74.5543329 C52.7639203,76.3906465 52.7639203,79.4511692 50.9147175,81.2874828 L44.7507081,87.4085282 C43.8877468,88.2654746 42.6549449,88.7551582 41.2988629,88.7551582 L14.7936225,88.7551582 C13.5608206,88.7551582 12.3280188,88.2654746 11.3417773,87.4085282 L1.35608206,77.4924347 C0.493120751,76.6354883 0,75.4112792 0,74.1870702 L0,43.3370014 C0,42.1127923 0.493120751,40.8885832 1.35608206,39.909216 L11.3417773,29.9931224 C12.2047386,29.1361761 13.4375405,28.6464924 14.7936225,28.6464924 L39.5729402,28.6464924 C40.8057421,28.6464924 42.038544,29.1361761 43.0247855,29.9931224 L53.0104807,39.909216 C53.873442,40.8885832 54.4898429,42.1127923 54.4898429,43.3370014 Z M44.011027,48.6011004 L44.011027,46.7647868 C44.011027,45.5405777 43.5179062,44.3163686 42.6549449,43.3370014 L38.3401384,39.1746905 C37.477177,38.3177442 36.2443752,37.8280605 34.8882931,37.8280605 L19.4782697,37.8280605 C18.2454678,37.8280605 17.0126659,38.3177442 16.0264244,39.1746905 L11.834898,43.3370014 C10.9719367,44.1939477 10.478816,45.4181568 10.478816,46.7647868 L10.478816,48.6011004 C10.478816,51.2943604 12.6978593,53.3755158 15.2867433,53.3755158 L39.2030997,53.3755158 C41.7919836,53.4979367 44.011027,51.2943604 44.011027,48.6011004 Z" id="Shape"></path>
                    <path d="M72.24219,0.979367263 L72.24219,0.979367263 C75.0776343,0.979367263 77.4199578,3.30536451 77.4199578,6.12104539 L77.4199578,9.18156809 C77.4199578,11.997249 75.0776343,14.3232462 72.24219,14.3232462 L72.24219,14.3232462 C69.4067457,14.3232462 67.0644221,11.997249 67.0644221,9.18156809 L67.0644221,6.12104539 C66.9411419,3.30536451 69.2834655,0.979367263 72.24219,0.979367263 Z M72.24219,28.6464924 L72.24219,28.6464924 C75.0776343,28.6464924 77.4199578,30.9724897 77.4199578,33.7881706 L77.4199578,83.6134801 C77.4199578,86.4291609 75.0776343,88.7551582 72.24219,88.7551582 L72.24219,88.7551582 C69.4067457,88.7551582 67.0644221,86.4291609 67.0644221,83.6134801 L67.0644221,33.7881706 C66.9411419,30.9724897 69.2834655,28.6464924 72.24219,28.6464924 Z" id="Shape"></path>
                    <path d="M130.676999,87.4085282 L111.69185,68.1884457 C108.733126,65.127923 103.555358,67.3314993 103.555358,71.4938102 L103.555358,84.2255846 C103.555358,86.7964237 101.459594,88.8775791 98.8707105,88.8775791 L97.884469,88.8775791 C95.2955851,88.8775791 93.1998219,86.7964237 93.1998219,84.2255846 L93.1998219,4.6519945 C93.1998219,2.08115543 95.2955851,0 97.884469,0 L98.8707105,0 C101.459594,0 103.555358,2.08115543 103.555358,4.6519945 L103.555358,45.0508941 C103.555358,49.213205 108.733126,51.4167813 111.69185,48.3562586 L129.814038,29.9931224 C130.676999,29.1361761 131.909801,28.5240715 133.142603,28.5240715 L133.142603,28.5240715 C137.334129,28.5240715 139.429892,33.5433287 136.471168,36.4814305 L118.718821,54.5997249 C116.869618,56.4360385 116.869618,59.3741403 118.718821,61.2104539 L138.320371,80.7977992 C141.279095,83.735901 139.183332,88.7551582 134.991805,88.7551582 L134.128844,88.7551582 C132.772762,88.8775791 131.66324,88.3878955 130.676999,87.4085282 Z" id="Path"></path>
                    <path d="M204.768392,46.2751032 L204.768392,71.2489684 C204.768392,74.431912 203.53559,77.3700138 201.316546,79.5735901 L195.522378,85.3273728 C193.303334,87.5309491 190.22133,88.7551582 187.139325,88.7551582 L168.154176,88.7551582 C164.948891,88.7551582 161.990167,87.5309491 159.771123,85.3273728 L153.976954,79.5735901 C151.757911,77.3700138 150.525109,74.3094911 150.525109,71.2489684 L150.525109,46.2751032 C150.525109,43.0921596 151.757911,40.1540578 153.976954,37.9504814 L159.771123,32.1966988 C161.990167,29.9931224 165.072171,28.7689133 168.154176,28.7689133 L187.139325,28.7689133 C190.34461,28.7689133 193.303334,29.9931224 195.522378,32.1966988 L201.316546,37.9504814 C203.53559,40.1540578 204.768392,43.0921596 204.768392,46.2751032 Z M194.412856,67.8211829 L194.412856,49.7028886 C194.412856,46.519945 193.180054,43.5818432 190.961011,41.3782669 L190.961011,41.3782669 C188.618687,39.1746905 185.659963,37.9504814 182.454678,37.9504814 L172.715543,37.9504814 C169.510258,37.9504814 166.551534,39.1746905 164.33249,41.3782669 L164.33249,41.3782669 C162.113447,43.5818432 160.880645,46.6423659 160.880645,49.7028886 L160.880645,67.8211829 C160.880645,71.0041265 162.113447,73.9422283 164.33249,76.1458047 L164.33249,76.1458047 C166.551534,78.349381 169.633538,79.5735901 172.715543,79.5735901 L182.454678,79.5735901 C185.659963,79.5735901 188.618687,78.349381 190.83773,76.1458047 L190.83773,76.1458047 C193.180054,73.9422283 194.412856,70.8817056 194.412856,67.8211829 Z" id="Shape"></path>
                    <path d="M270.600012,40.7661623 L270.600012,85.3273728 C270.600012,87.2861073 268.997369,88.8775791 267.024886,88.8775791 L263.696321,88.8775791 C261.723838,88.8775791 260.121196,87.2861073 260.121196,85.3273728 L260.121196,44.6836314 C260.121196,43.7042641 259.751355,42.8473177 259.011674,42.1127923 L255.806389,38.9298487 C255.189988,38.3177442 254.203747,37.8280605 253.217505,37.8280605 L241.629168,37.8280605 C240.642926,37.8280605 239.779965,38.1953232 239.040284,38.9298487 L229.547709,48.3562586 C228.931308,48.9683631 228.438188,49.9477304 228.438188,50.9270977 L228.438188,85.4497937 C228.438188,87.4085282 226.835545,89 224.863062,89 L221.534497,89 C219.562014,89 217.959372,87.4085282 217.959372,85.4497937 L217.959372,32.1966988 C217.959372,30.2379642 219.562014,28.6464924 221.534497,28.6464924 L224.000101,28.6464924 C225.972584,28.6464924 227.451946,30.1155433 227.575226,32.0742779 L227.575226,32.0742779 C227.698507,35.1348006 231.520192,36.6038514 233.739236,34.4002751 L238.547163,29.6258597 C239.163564,29.0137552 240.149806,28.5240715 241.136047,28.5240715 L258.271993,28.5240715 C259.258235,28.5240715 260.121196,28.8913343 260.860877,29.6258597 L269.49049,38.1953232 C270.230171,38.9298487 270.600012,39.786795 270.600012,40.7661623 Z" id="Path"></path>
                    <path d="M290.571402,0.979367263 L290.571402,0.979367263 C293.406847,0.979367263 295.74917,3.30536451 295.74917,6.12104539 L295.74917,9.18156809 C295.74917,11.997249 293.406847,14.3232462 290.571402,14.3232462 L290.571402,14.3232462 C287.735958,14.3232462 285.393634,11.997249 285.393634,9.18156809 L285.393634,6.12104539 C285.393634,3.30536451 287.735958,0.979367263 290.571402,0.979367263 Z M290.571402,28.6464924 L290.571402,28.6464924 C293.406847,28.6464924 295.74917,30.9724897 295.74917,33.7881706 L295.74917,83.6134801 C295.74917,86.4291609 293.406847,88.7551582 290.571402,88.7551582 L290.571402,88.7551582 C287.735958,88.7551582 285.393634,86.4291609 285.393634,83.6134801 L285.393634,33.7881706 C285.393634,30.9724897 287.735958,28.6464924 290.571402,28.6464924 Z" id="Shape"></path>
                    <path d="M358.252225,81.4099037 L352.088216,87.5309491 C351.225255,88.3878955 349.992453,88.8775791 348.636371,88.8775791 L323.980333,88.8775791 C322.747531,88.8775791 321.514729,88.3878955 320.528488,87.5309491 L310.542793,77.6148556 C309.679831,76.7579092 309.186711,75.5337001 309.186711,74.1870702 L309.186711,43.3370014 C309.186711,42.1127923 309.679831,40.8885832 310.542793,39.909216 L320.528488,29.9931224 C321.391449,29.1361761 322.624251,28.6464924 323.980333,28.6464924 L348.01997,28.6464924 C349.252772,28.6464924 350.485574,29.1361761 351.471815,29.9931224 L357.635824,36.1141678 C359.485027,37.9504814 359.485027,41.0110041 357.635824,42.8473177 L357.635824,42.8473177 C355.786622,44.6836314 352.704617,44.6836314 350.855414,42.8473177 L347.280289,39.2971114 C346.417327,38.4401651 345.184525,37.9504814 343.828443,37.9504814 L328.66498,37.9504814 C327.432178,37.9504814 326.199377,38.4401651 325.213135,39.2971114 L321.144889,43.3370014 C320.281928,44.1939477 319.788807,45.4181568 319.788807,46.7647868 L319.788807,70.6368638 C319.788807,71.8610729 320.281928,73.085282 321.144889,74.0646492 L325.213135,78.1045392 C326.076096,78.9614856 327.308898,79.4511692 328.66498,79.4511692 L344.444844,79.4511692 C345.677646,79.4511692 346.910448,78.9614856 347.89669,78.1045392 L351.471815,74.5543329 C353.321018,72.7180193 356.403023,72.7180193 358.252225,74.5543329 L358.252225,74.5543329 C360.101428,76.5130674 360.101428,79.5735901 358.252225,81.4099037 Z" id="Path"></path>
                    <path d="M421.371681,40.7661623 L421.371681,85.3273728 C421.371681,87.2861073 419.769039,88.8775791 417.796556,88.8775791 L415.330952,88.8775791 C413.358469,88.8775791 411.879107,87.4085282 411.755827,85.4497937 L411.755827,85.4497937 C411.632547,82.389271 407.810861,80.9202201 405.591817,83.1237964 L400.78389,87.8982118 C400.167489,88.5103164 399.181248,89 398.195006,89 L378.840017,89 C377.853775,89 376.990814,88.6327373 376.251133,87.8982118 L367.99136,79.696011 C367.374959,79.0839065 366.881838,78.1045392 366.881838,77.1251719 L366.881838,65.9848693 C366.881838,65.0055021 367.251679,64.1485557 367.99136,63.4140303 L375.018331,56.4360385 C375.634732,55.823934 376.497693,55.4566713 377.360654,55.4566713 L407.31774,53.3755158 C409.166943,53.2530949 410.646305,51.6616231 410.646305,49.8253095 L410.646305,44.5612105 C410.646305,43.5818432 410.276465,42.7248968 409.536783,41.9903714 L406.208218,38.6850069 C405.591817,38.0729023 404.605576,37.5832187 403.619334,37.5832187 L384.880746,37.5832187 C383.894504,37.5832187 383.031543,37.9504814 382.291862,38.6850069 L377.730495,43.2145805 C376.374413,44.5612105 374.032089,44.5612105 372.676007,43.2145805 L370.950085,41.5006878 C369.594003,40.1540578 369.594003,37.8280605 370.950085,36.4814305 L377.853775,29.6258597 C378.470176,29.0137552 379.456418,28.5240715 380.442659,28.5240715 L408.920382,28.5240715 C409.906624,28.5240715 410.769585,28.8913343 411.509266,29.6258597 L420.13888,38.1953232 C421.001841,38.9298487 421.371681,39.786795 421.371681,40.7661623 Z M410.892865,66.5969739 L410.892865,66.1072902 C410.892865,64.0261348 409.166943,62.434663 407.07118,62.5570839 L382.538422,64.2709766 C381.675461,64.2709766 380.8125,64.6382393 380.319379,65.2503439 L378.716736,66.8418157 C378.100336,67.4539202 377.607215,68.4332875 377.607215,69.4126547 L377.607215,73.5749656 C377.607215,74.5543329 377.977055,75.4112792 378.716736,76.1458047 L381.18234,78.5942228 C381.798741,79.2063274 382.784983,79.696011 383.771224,79.696011 L397.825166,79.696011 C398.811407,79.696011 399.674368,79.3287483 400.41405,78.5942228 L410.029904,69.045392 C410.523025,68.5557084 410.892865,67.5763411 410.892865,66.5969739 Z" id="Shape"></path>
                </g>
            </g>
        </g>
    </g>
</svg>