<?xml version="1.0" encoding="UTF-8"?>
<svg width="131.642366px" height="28px" viewBox="0 0 131.642366 28" version="1.1" xmlns="http://www.w3.org/2000/svg" xmlns:xlink="http://www.w3.org/1999/xlink">
    <title>eikonica</title>
    <g id="home-page-eikonica-scroll-horizontal" stroke="none" stroke-width="1" fill="none" fill-rule="evenodd">
        <g id="Medium-scroll-vertical" transform="translate(-654, -1030.7)" fill="#000000" fill-rule="nonzero">
            <g id="header-text" transform="translate(0, 1003)">
                <g id="eikonica" transform="translate(654, 27.7)">
                    <path d="M17.0233838,13.6341128 L17.0233838,18.1403026 C17.0233838,18.9876204 16.3301238,19.6423659 15.5213205,19.6423659 L4.77579092,19.6423659 C3.92847318,19.6423659 3.27372765,20.3356259 3.27372765,21.1444292 L3.27372765,22.2228336 C3.27372765,22.607978 3.42778542,22.9931224 3.69738652,23.301238 L5.00687758,24.610729 C5.27647868,24.8803301 5.66162311,25.0343879 6.08528198,25.0343879 L11.5543329,25.0343879 C11.9394773,25.0343879 12.3246217,24.8803301 12.6327373,24.610729 L13.7881706,23.4552957 C14.3658872,22.8775791 15.3287483,22.8775791 15.9064649,23.4552957 L15.9064649,23.4552957 C16.4841816,24.0330124 16.4841816,24.9958735 15.9064649,25.5735901 L13.9807428,27.4993122 C13.7111417,27.7689133 13.3259972,27.9229711 12.9023384,27.9229711 L4.62173315,27.9229711 C4.23658872,27.9229711 3.85144429,27.7689133 3.54332875,27.4993122 L0.423658872,24.3796424 C0.154057772,24.1100413 0,23.7248968 0,23.3397524 L0,13.6341128 C0,13.2489684 0.154057772,12.8638239 0.423658872,12.5557084 L3.54332875,9.43603851 C3.81292985,9.16643741 4.19807428,9.01237964 4.62173315,9.01237964 L12.3631362,9.01237964 C12.7482806,9.01237964 13.133425,9.16643741 13.4415406,9.43603851 L16.5612105,12.5557084 C16.8308116,12.8638239 17.0233838,13.2489684 17.0233838,13.6341128 Z M13.7496561,15.2902338 L13.7496561,14.7125172 C13.7496561,14.3273728 13.5955983,13.9422283 13.3259972,13.6341128 L11.9779917,12.3246217 C11.7083906,12.0550206 11.3232462,11.9009629 10.8995873,11.9009629 L6.08528198,11.9009629 C5.70013755,11.9009629 5.31499312,12.0550206 5.00687758,12.3246217 L3.69738652,13.6341128 C3.42778542,13.9037139 3.27372765,14.2888583 3.27372765,14.7125172 L3.27372765,15.2902338 C3.27372765,16.1375516 3.96698762,16.7922971 4.77579092,16.7922971 L12.2475928,16.7922971 C13.0563961,16.8308116 13.7496561,16.1375516 13.7496561,15.2902338 Z" id="Shape"></path>
                    <path d="M22.5694635,0.308115543 L22.5694635,0.308115543 C23.4552957,0.308115543 24.1870702,1.03988996 24.1870702,1.92572215 L24.1870702,2.88858322 C24.1870702,3.77441541 23.4552957,4.50618982 22.5694635,4.50618982 L22.5694635,4.50618982 C21.6836314,4.50618982 20.9518569,3.77441541 20.9518569,2.88858322 L20.9518569,1.92572215 C20.9133425,1.03988996 21.6451169,0.308115543 22.5694635,0.308115543 Z M22.5694635,9.01237964 L22.5694635,9.01237964 C23.4552957,9.01237964 24.1870702,9.74415406 24.1870702,10.6299862 L24.1870702,26.3053645 C24.1870702,27.1911967 23.4552957,27.9229711 22.5694635,27.9229711 L22.5694635,27.9229711 C21.6836314,27.9229711 20.9518569,27.1911967 20.9518569,26.3053645 L20.9518569,10.6299862 C20.9133425,9.74415406 21.6451169,9.01237964 22.5694635,9.01237964 Z" id="Shape"></path>
                    <path d="M40.8253095,27.4993122 L34.8940853,21.4525447 C33.9697387,20.4896836 32.352132,21.1829436 32.352132,22.4924347 L32.352132,26.4979367 C32.352132,27.30674 31.6973865,27.9614856 30.8885832,27.9614856 L30.5804677,27.9614856 C29.7716644,27.9614856 29.1169188,27.30674 29.1169188,26.4979367 L29.1169188,1.46354883 C29.1169188,0.65474553 29.7716644,0 30.5804677,0 L30.8885832,0 C31.6973865,0 32.352132,0.65474553 32.352132,1.46354883 L32.352132,14.173315 C32.352132,15.4828061 33.9697387,16.176066 34.8940853,15.213205 L40.5557084,9.43603851 C40.8253095,9.16643741 41.2104539,8.9738652 41.5955983,8.9738652 L41.5955983,8.9738652 C42.9050894,8.9738652 43.5598349,10.5529574 42.6354883,11.477304 L37.0894085,17.1774415 C36.5116919,17.7551582 36.5116919,18.6795048 37.0894085,19.2572215 L43.213205,25.4195323 C44.1375516,26.343879 43.4828061,27.9229711 42.173315,27.9229711 L41.9037139,27.9229711 C41.480055,27.9614856 41.133425,27.8074278 40.8253095,27.4993122 Z" id="Path"></path>
                    <path d="M63.9724897,14.5584594 L63.9724897,22.4154058 C63.9724897,23.4167813 63.5873453,24.3411279 62.8940853,25.0343879 L61.0839065,26.8445667 C60.3906465,27.5378267 59.4277854,27.9229711 58.4649243,27.9229711 L52.5337001,27.9229711 C51.5323246,27.9229711 50.607978,27.5378267 49.914718,26.8445667 L48.1045392,25.0343879 C47.4112792,24.3411279 47.0261348,23.3782669 47.0261348,22.4154058 L47.0261348,14.5584594 C47.0261348,13.5570839 47.4112792,12.6327373 48.1045392,11.9394773 L49.914718,10.1292985 C50.607978,9.43603851 51.5708391,9.05089409 52.5337001,9.05089409 L58.4649243,9.05089409 C59.4662999,9.05089409 60.3906465,9.43603851 61.0839065,10.1292985 L62.8940853,11.9394773 C63.5873453,12.6327373 63.9724897,13.5570839 63.9724897,14.5584594 Z M60.7372765,21.3370014 L60.7372765,15.6368638 C60.7372765,14.6354883 60.352132,13.7111417 59.6588721,13.0178817 L59.6588721,13.0178817 C58.9270977,12.3246217 58.002751,11.9394773 57.0013755,11.9394773 L53.9587345,11.9394773 C52.957359,11.9394773 52.0330124,12.3246217 51.3397524,13.0178817 L51.3397524,13.0178817 C50.6464924,13.7111417 50.261348,14.6740028 50.261348,15.6368638 L50.261348,21.3370014 C50.261348,22.3383769 50.6464924,23.2627235 51.3397524,23.9559835 L51.3397524,23.9559835 C52.0330124,24.6492435 52.9958735,25.0343879 53.9587345,25.0343879 L57.0013755,25.0343879 C58.002751,25.0343879 58.9270977,24.6492435 59.6203576,23.9559835 L59.6203576,23.9559835 C60.352132,23.2627235 60.7372765,22.2998624 60.7372765,21.3370014 Z" id="Shape"></path>
                    <path d="M84.5392022,12.8253095 L84.5392022,26.8445667 C84.5392022,27.4607978 84.0385144,27.9614856 83.4222834,27.9614856 L82.3823934,27.9614856 C81.7661623,27.9614856 81.2654746,27.4607978 81.2654746,26.8445667 L81.2654746,14.0577717 C81.2654746,13.7496561 81.1499312,13.480055 80.9188446,13.2489684 L79.9174691,12.2475928 C79.7248968,12.0550206 79.4167813,11.9009629 79.1086657,11.9009629 L75.4883081,11.9009629 C75.1801926,11.9009629 74.9105915,12.0165062 74.6795048,12.2475928 L71.7138927,15.213205 C71.5213205,15.4057772 71.3672627,15.7138927 71.3672627,16.0220083 L71.3672627,26.8830812 C71.3672627,27.4993122 70.866575,28 70.2503439,28 L69.2104539,28 C68.5942228,28 68.0935351,27.4993122 68.0935351,26.8830812 L68.0935351,10.1292985 C68.0935351,9.5130674 68.5942228,9.01237964 69.2104539,9.01237964 L69.9807428,9.01237964 C70.5969739,9.01237964 71.0591472,9.47455296 71.0976616,10.090784 L71.0976616,10.090784 C71.1361761,11.0536451 72.3301238,11.5158184 73.0233838,10.8225585 L74.525447,9.32049519 C74.7180193,9.12792297 75.0261348,8.9738652 75.3342503,8.9738652 L80.6877579,8.9738652 C80.9958735,8.9738652 81.2654746,9.08940853 81.4965612,9.32049519 L84.1925722,12.0165062 C84.4236589,12.2475928 84.5392022,12.5171939 84.5392022,12.8253095 Z" id="Path"></path>
                    <path d="M90.778542,0.308115543 L90.778542,0.308115543 C91.6643741,0.308115543 92.3961486,1.03988996 92.3961486,1.92572215 L92.3961486,2.88858322 C92.3961486,3.77441541 91.6643741,4.50618982 90.778542,4.50618982 L90.778542,4.50618982 C89.8927098,4.50618982 89.1609354,3.77441541 89.1609354,2.88858322 L89.1609354,1.92572215 C89.1609354,1.03988996 89.8927098,0.308115543 90.778542,0.308115543 Z M90.778542,9.01237964 L90.778542,9.01237964 C91.6643741,9.01237964 92.3961486,9.74415406 92.3961486,10.6299862 L92.3961486,26.3053645 C92.3961486,27.1911967 91.6643741,27.9229711 90.778542,27.9229711 L90.778542,27.9229711 C89.8927098,27.9229711 89.1609354,27.1911967 89.1609354,26.3053645 L89.1609354,10.6299862 C89.1609354,9.74415406 89.8927098,9.01237964 90.778542,9.01237964 Z" id="Shape"></path>
                    <path d="M111.922971,25.6121045 L109.997249,27.5378267 C109.727648,27.8074278 109.342503,27.9614856 108.918845,27.9614856 L101.215956,27.9614856 C100.830812,27.9614856 100.445667,27.8074278 100.137552,27.5378267 L97.0178817,24.4181568 C96.7482806,24.1485557 96.5942228,23.7634113 96.5942228,23.3397524 L96.5942228,13.6341128 C96.5942228,13.2489684 96.7482806,12.8638239 97.0178817,12.5557084 L100.137552,9.43603851 C100.407153,9.16643741 100.792297,9.01237964 101.215956,9.01237964 L108.726272,9.01237964 C109.111417,9.01237964 109.496561,9.16643741 109.804677,9.43603851 L111.730399,11.3617607 C112.308116,11.9394773 112.308116,12.9023384 111.730399,13.480055 L111.730399,13.480055 C111.152682,14.0577717 110.189821,14.0577717 109.612105,13.480055 L108.495186,12.3631362 C108.225585,12.0935351 107.84044,11.9394773 107.416781,11.9394773 L102.679505,11.9394773 C102.29436,11.9394773 101.909216,12.0935351 101.6011,12.3631362 L100.330124,13.6341128 C100.060523,13.9037139 99.9064649,14.2888583 99.9064649,14.7125172 L99.9064649,22.2228336 C99.9064649,22.607978 100.060523,22.9931224 100.330124,23.301238 L101.6011,24.5722146 C101.870702,24.8418157 102.255846,24.9958735 102.679505,24.9958735 L107.609354,24.9958735 C107.994498,24.9958735 108.379642,24.8418157 108.687758,24.5722146 L109.804677,23.4552957 C110.382393,22.8775791 111.345254,22.8775791 111.922971,23.4552957 L111.922971,23.4552957 C112.500688,24.0715268 112.500688,25.0343879 111.922971,25.6121045 Z" id="Path"></path>
                    <path d="M131.642366,12.8253095 L131.642366,26.8445667 C131.642366,27.4607978 131.141678,27.9614856 130.525447,27.9614856 L129.755158,27.9614856 C129.138927,27.9614856 128.676754,27.4993122 128.638239,26.8830812 L128.638239,26.8830812 C128.599725,25.9202201 127.405777,25.4580468 126.712517,26.1513067 L125.210454,27.65337 C125.017882,27.8459422 124.709766,28 124.401651,28 L118.354883,28 C118.046768,28 117.777166,27.8844567 117.54608,27.65337 L114.965612,25.0729023 C114.77304,24.8803301 114.618982,24.5722146 114.618982,24.264099 L114.618982,20.7592847 C114.618982,20.4511692 114.734525,20.1815681 114.965612,19.9504814 L117.160935,17.7551582 C117.353508,17.562586 117.623109,17.4470426 117.89271,17.4470426 L127.251719,16.7922971 C127.829436,16.7537827 128.291609,16.2530949 128.291609,15.6753783 L128.291609,14.0192572 C128.291609,13.7111417 128.176066,13.4415406 127.944979,13.2104539 L126.905089,12.170564 C126.712517,11.9779917 126.404402,11.823934 126.096286,11.823934 L120.242091,11.823934 C119.933975,11.823934 119.664374,11.9394773 119.433287,12.170564 L118.008253,13.5955983 C117.584594,14.0192572 116.85282,14.0192572 116.429161,13.5955983 L115.889959,13.0563961 C115.4663,12.6327373 115.4663,11.9009629 115.889959,11.477304 L118.046768,9.32049519 C118.23934,9.12792297 118.547455,8.9738652 118.855571,8.9738652 L127.752407,8.9738652 C128.060523,8.9738652 128.330124,9.08940853 128.56121,9.32049519 L131.257221,12.0165062 C131.526823,12.2475928 131.642366,12.5171939 131.642366,12.8253095 Z M128.368638,20.9518569 L128.368638,20.7977992 C128.368638,20.1430536 127.829436,19.6423659 127.174691,19.6808803 L119.510316,20.2200825 C119.240715,20.2200825 118.971114,20.3356259 118.817056,20.5281981 L118.316369,21.0288858 C118.123796,21.221458 117.969739,21.5295736 117.969739,21.8376891 L117.969739,23.1471802 C117.969739,23.4552957 118.085282,23.7248968 118.316369,23.9559835 L119.086657,24.7262724 C119.27923,24.9188446 119.587345,25.0729023 119.895461,25.0729023 L124.286107,25.0729023 C124.594223,25.0729023 124.863824,24.957359 125.094911,24.7262724 L128.099037,21.7221458 C128.253095,21.568088 128.368638,21.2599725 128.368638,20.9518569 Z" id="Shape"></path>
                </g>
            </g>
        </g>
    </g>
</svg>