<?xml version="1.0" encoding="UTF-8"?>
<svg width="84px" height="31px" viewBox="0 0 84 31" version="1.1" xmlns="http://www.w3.org/2000/svg" xmlns:xlink="http://www.w3.org/1999/xlink">
    <title>eikon-white</title>
    <g id="home-page-eikonica-scroll-horizontal" stroke="none" stroke-width="1" fill="none" fill-rule="evenodd">
        <g id="Small" transform="translate(-1202, -740)" fill="#FFFFFF">
            <g id="contact-copy" transform="translate(67, 717)">
                <g id="footer-logo" transform="translate(792, 13)">
                    <g id="eikon-white" transform="translate(343, 10)">
                        <g id="Group-3" transform="translate(0, 8.0486)">
                            <path d="M12.7423729,7.60779817 C12.7423729,5.11926606 11.0338983,3.48394495 8.54237288,3.48394495 C6.05084746,3.48394495 4.27118644,4.9059633 4.27118644,7.60779817 L12.7423729,7.60779817 Z M8.61355932,0 C13.1694915,0 16.7288136,3.55504587 16.7288136,8.10550459 C16.7288136,8.74541284 16.7288136,9.52752294 16.5152542,10.7362385 L4.12881356,10.7362385 C4.12881356,13.2958716 5.41016949,15.4288991 8.68474576,15.4288991 C11.0338983,15.4288991 11.8881356,14.3623853 12.3864407,13.0825688 L16.5152542,13.0825688 C15.9457627,16.2110092 13.1694915,18.983945 8.68474576,18.983945 C2.84745763,18.983945 0,14.3623853 0,9.45642202 C0,4.05275229 3.13220339,0 8.61355932,0 L8.61355932,0 L8.61355932,0 Z" id="Fill-1"></path>
                        </g>
                        <path d="M20.8576271,26.4495413 L25.2,26.4495413 L25.2,8.88761468 L20.8576271,8.88761468 C20.8576271,8.88761468 20.8576271,26.4495413 20.8576271,26.4495413 L20.8576271,26.4495413 Z M22.9932203,1.77635684e-15 C24.6305085,1.77635684e-15 25.9118644,1.2087156 25.9118644,2.77293578 C25.9118644,4.33715596 24.6305085,5.47477064 22.9932203,5.47477064 C21.3559322,5.47477064 20.1457627,4.26605505 20.1457627,2.77293578 C20.1457627,1.27981651 21.4271186,1.77635684e-15 22.9932203,1.77635684e-15 L22.9932203,1.77635684e-15 L22.9932203,1.77635684e-15 Z" id="Fill-4"></path>
                        <polygon id="Fill-6" points="29.3288136 26.4495413 29.3288136 1.77635684e-15 33.5288136 1.77635684e-15 33.5288136 16.6376147 40.220339 8.81651376 45.4169492 8.81651376 37.9423729 17.6330275 45.4169492 26.4495413 40.220339 26.4495413 33.5288136 18.6995413 33.5288136 26.4495413"></polygon>
                        <path d="M54.0305085,23.25 C57.3050847,23.25 59.5118644,20.6192661 59.5118644,17.4908257 C59.5118644,14.3623853 57.3050847,11.7316514 54.0305085,11.7316514 C50.7559322,11.7316514 48.620339,14.3623853 48.620339,17.4908257 C48.620339,20.6192661 50.7559322,23.25 54.0305085,23.25 M54.0305085,8.03440367 C59.9389831,8.03440367 63.8542373,12.3715596 63.8542373,17.4908257 C63.8542373,22.6100917 59.9389831,27.0183486 54.0305085,27.0183486 C48.1220339,27.0183486 44.2779661,22.6811927 44.2779661,17.5619266 C44.2779661,12.4426606 48.1932203,8.03440367 54.0305085,8.03440367" id="Fill-7"></path>
                        <path d="M66.1322034,26.4495413 L66.1322034,8.53211009 L70.3322034,8.53211009 L70.3322034,11.0206422 C71.4711864,9.02981651 73.5355932,8.03440367 76.240678,8.03440367 C78.9457627,8.03440367 80.5830508,8.9587156 81.6508475,10.4518349 C82.5762712,11.8027523 82.7898305,13.2958716 82.7898305,15.7844037 L82.7898305,26.4495413 L78.5898305,26.4495413 L78.5898305,17.206422 C78.5898305,14.1490826 77.6644068,11.8027523 74.6745763,11.8027523 C71.6847458,11.8027523 70.3322034,14.1490826 70.3322034,17.206422 L70.3322034,26.4495413 L66.1322034,26.4495413 L66.1322034,26.4495413 Z" id="Fill-8"></path>
                        <polygon id="Fill-9" points="37.0881356 29.293578 0.569491525 29.293578 0.569491525 31 37.9423729 31"></polygon>
                        <polygon id="Fill-10" points="38.5830508 29.293578 39.4372881 31 84 31 84 29.293578"></polygon>
                    </g>
                </g>
            </g>
        </g>
    </g>
</svg>