<?xml version="1.0" encoding="UTF-8"?>
<svg width="52px" height="50.9300459px" viewBox="0 0 52 50.9300459" version="1.1" xmlns="http://www.w3.org/2000/svg" xmlns:xlink="http://www.w3.org/1999/xlink">
    <title>etat-de-fribourg-white</title>
    <g id="home-page-eikonica-scroll-horizontal" stroke="none" stroke-width="1" fill="none" fill-rule="evenodd">
        <g id="Small" transform="translate(-1022, -730)" fill="#FFFFFF" fill-rule="nonzero">
            <g id="contact-copy" transform="translate(67, 717)">
                <g id="footer-logo" transform="translate(792, 13)">
                    <g id="etat-de-fribourg-white" transform="translate(163, 0)">
                        <path d="M0.282225237,24.3474845 L0.282225237,25.3967961 C3.38670285,24.6273009 6.70284939,22.73854 8.53731343,21.0596413 C9.73677069,19.9403756 10.7951153,18.6112475 11.641791,17.0722571 C11.641791,17.0722571 11.7123474,17.002303 11.7123474,16.9323489 C12.4884668,15.5332667 13.0529172,13.8543681 13.4762551,11.8956531 C14.605156,6.50918666 12.9118046,1.12272027 12.5590231,0.423179178 C12.1356852,-0.0664995851 11.5712347,0.0034545239 11.1478969,0.0034545239 L0.282225237,0.0034545239 L0.282225237,12.3153777 L8.60786974,12.3153777 C8.89009498,12.3853318 9.10176391,12.52524 9.10176391,12.8050565 L9.10176391,13.0149188 C9.10176391,15.4633126 7.90230665,20.2901461 0.917232022,23.3681269 L0.282225237,23.6479434 C0.282225237,23.6479434 0.282225237,24.3474845 0.282225237,24.3474845 L0.282225237,24.3474845 Z" id="Path"></path>
                        <g id="Group" transform="translate(0, 31.203)">
                            <polygon id="Path" points="0.282225237 0.069954109 3.0339213 0.069954109 3.0339213 0.489678763 0.846675712 0.489678763 0.846675712 1.74885273 2.89280868 1.74885273 2.89280868 2.16857738 0.846675712 2.16857738 0.846675712 3.49770545 3.0339213 3.49770545 3.0339213 3.91743011 0.282225237 3.91743011"></polygon>
                            <polygon id="Path" points="4.65671642 0.489678763 3.38670285 0.489678763 3.38670285 0.069954109 6.56173677 0.069954109 6.56173677 0.489678763 5.22116689 0.489678763 5.22116689 3.98738421 4.65671642 3.98738421 4.65671642 0.489678763"></polygon>
                            <path d="M7.62008141,0.069954109 L8.18453189,0.069954109 L9.73677069,3.98738421 L9.17232022,3.98738421 L8.74898236,2.79816436 L7.05563094,2.79816436 L6.63229308,3.98738421 L6.06784261,3.98738421 L7.62008141,0.069954109 Z M7.19674355,2.37843971 L8.53731343,2.37843971 L7.90230665,0.559632872 L7.90230665,0.559632872 L7.19674355,2.37843971 Z" id="Shape"></path>
                            <polygon id="Path" points="10.6540027 0.489678763 9.31343284 0.489678763 9.31343284 0.069954109 12.4884668 0.069954109 12.4884668 0.489678763 11.1478969 0.489678763 11.1478969 3.98738421 10.6540027 3.98738421"></polygon>
                            <path d="M14.6757123,0.069954109 L16.0162822,0.069954109 C17.2157395,0.069954109 17.9213026,0.69954109 17.9213026,1.95871505 C17.9213026,3.28784312 17.3568521,3.98738421 16.0162822,3.98738421 L14.6757123,3.98738421 L14.6757123,0.069954109 Z M15.1696065,3.56765956 L16.0162822,3.56765956 C16.3690638,3.56765956 17.3568521,3.49770545 17.3568521,2.02866916 C17.3568521,1.11926574 17.0040706,0.559632872 16.0162822,0.559632872 L15.0990502,0.559632872 L15.0990502,3.56765956 L15.1696065,3.56765956 L15.1696065,3.56765956 Z" id="Shape"></path>
                            <path d="M18.6268657,0.069954109 L21.3785617,0.069954109 L21.3785617,0.489678763 L19.1913161,0.489678763 L19.1913161,1.74885273 L21.2374491,1.74885273 L21.2374491,2.16857738 L19.1913161,2.16857738 L19.1913161,3.49770545 L21.3785617,3.49770545 L21.3785617,3.91743011 L18.6268657,3.91743011 C18.6268657,3.91743011 18.6268657,0.069954109 18.6268657,0.069954109 Z" id="Path"></path>
                            <polygon id="Path" points="23.7774763 0.069954109 26.3880597 0.069954109 26.3880597 0.489678763 24.3419267 0.489678763 24.3419267 1.74885273 26.1763908 1.74885273 26.1763908 2.16857738 24.3419267 2.16857738 24.3419267 3.98738421 23.8480326 3.98738421 23.8480326 0.069954109"></polygon>
                            <path d="M27.0230665,0.069954109 L28.8575305,0.069954109 C29.5630936,0.069954109 30.0569878,0.489678763 30.0569878,1.11926574 C30.0569878,1.60894451 29.8453189,1.95871505 29.3514247,2.09862327 L29.3514247,2.09862327 C29.8453189,2.16857738 29.9158752,2.51834792 29.9158752,2.93807258 C29.9158752,3.28784312 29.9158752,3.77752189 30.1275441,3.98738421 L29.5630936,3.98738421 C29.421981,3.847476 29.4925373,3.42775134 29.421981,3.00802669 C29.3514247,2.65825614 29.2808684,2.3084856 28.7869742,2.3084856 L27.587517,2.3084856 L27.587517,3.98738421 L27.0936228,3.98738421 L27.0936228,0.069954109 L27.0230665,0.069954109 L27.0230665,0.069954109 Z M28.6458616,1.88876094 C29.1397558,1.88876094 29.5630936,1.74885273 29.5630936,1.18921985 C29.5630936,0.839449308 29.3514247,0.489678763 28.8575305,0.489678763 L27.587517,0.489678763 L27.587517,1.81880683 L28.6458616,1.81880683 L28.6458616,1.88876094 Z" id="Shape"></path>
                            <polygon id="Path" points="30.9742198 0.069954109 31.468114 0.069954109 31.468114 3.98738421 30.9742198 3.98738421"></polygon>
                            <path d="M32.4559023,0.069954109 L33.8670285,0.069954109 C34.21981,0.069954109 34.6431479,0.069954109 34.9253731,0.209862327 C35.2075984,0.349770545 35.4192673,0.629586981 35.4192673,1.04931164 C35.4192673,1.46903629 35.2075984,1.74885273 34.8548168,1.95871505 L34.8548168,1.95871505 C35.348711,2.02866916 35.6309362,2.44839382 35.6309362,2.86811847 C35.6309362,3.42775134 35.2075984,3.98738421 34.431479,3.98738421 L32.5264586,3.98738421 L32.5264586,0.069954109 L32.4559023,0.069954109 Z M33.0203528,1.74885273 L34.0786974,1.74885273 C34.6431479,1.74885273 34.9253731,1.5389904 34.9253731,1.11926574 C34.9253731,0.559632872 34.5725916,0.489678763 34.0786974,0.489678763 L33.0203528,0.489678763 L33.0203528,1.74885273 Z M33.0203528,3.56765956 L34.3609227,3.56765956 C34.7842605,3.56765956 35.0664858,3.28784312 35.0664858,2.86811847 C35.0664858,2.37843971 34.6431479,2.23853149 34.21981,2.23853149 L33.0203528,2.23853149 L33.0203528,3.56765956 L33.0203528,3.56765956 Z" id="Shape"></path>
                            <path d="M38.0298507,0 C39.2998643,0 39.9348711,0.979357526 39.9348711,2.02866916 C39.9348711,3.0779808 39.2998643,4.05733832 38.0298507,4.05733832 C36.7598372,4.05733832 36.1248304,3.0779808 36.1248304,2.02866916 C36.1248304,0.979357526 36.7598372,0 38.0298507,0 Z M38.0298507,3.63761367 C39.0176391,3.63761367 39.3704206,2.79816436 39.3704206,2.02866916 C39.3704206,1.25917396 38.9470828,0.419724654 38.0298507,0.419724654 C37.0420624,0.419724654 36.6892809,1.25917396 36.6892809,2.02866916 C36.6892809,2.79816436 37.0420624,3.63761367 38.0298507,3.63761367 Z" id="Shape"></path>
                            <path d="M43.8154681,2.58830203 C43.8154681,3.56765956 43.2510176,4.12729243 42.2632293,4.12729243 C41.275441,4.12729243 40.6404342,3.63761367 40.6404342,2.58830203 L40.6404342,0.069954109 L41.1343284,0.069954109 L41.1343284,2.58830203 C41.1343284,3.28784312 41.5576662,3.63761367 42.192673,3.63761367 C42.8276798,3.63761367 43.2510176,3.28784312 43.2510176,2.58830203 L43.2510176,0.069954109 L43.8154681,0.069954109 L43.8154681,2.58830203 Z" id="Path"></path>
                            <path d="M44.7327001,0.069954109 L46.6377205,0.069954109 C47.3432836,0.069954109 47.8371777,0.489678763 47.8371777,1.11926574 C47.8371777,1.60894451 47.6255088,1.95871505 47.1316147,2.09862327 L47.1316147,2.09862327 C47.6255088,2.16857738 47.6960651,2.51834792 47.6960651,2.93807258 C47.6960651,3.28784312 47.6960651,3.77752189 47.9077341,3.98738421 L47.3432836,3.98738421 C47.202171,3.847476 47.2727273,3.42775134 47.202171,3.00802669 C47.1316147,2.65825614 47.0610583,2.3084856 46.5671642,2.3084856 L45.2971506,2.3084856 L45.2971506,3.98738421 L44.8032564,3.98738421 L44.8032564,0.069954109 L44.7327001,0.069954109 L44.7327001,0.069954109 Z M46.3554953,1.88876094 C46.8493894,1.88876094 47.2727273,1.74885273 47.2727273,1.18921985 C47.2727273,0.839449308 47.0610583,0.489678763 46.5671642,0.489678763 L45.2971506,0.489678763 L45.2971506,1.81880683 L46.3554953,1.81880683 L46.3554953,1.88876094 Z" id="Shape"></path>
                            <path d="M51.5766621,3.49770545 C51.2944369,3.91743011 50.8005427,4.05733832 50.3066486,4.05733832 C49.1071913,4.05733832 48.4016282,3.0779808 48.4016282,2.09862327 C48.4016282,0.979357526 49.036635,0 50.3066486,0 C51.1533243,0 51.8588874,0.349770545 52,1.32912807 L51.5061058,1.32912807 C51.4355495,0.769495199 50.9416554,0.489678763 50.3066486,0.489678763 C49.3188602,0.489678763 48.9660787,1.32912807 48.9660787,2.16857738 C48.9660787,3.00802669 49.4599729,3.70756778 50.3066486,3.70756778 C51.1533243,3.70756778 51.5766621,3.14793491 51.5766621,2.44839382 L50.3066486,2.44839382 L50.3066486,2.02866916 L52,2.02866916 L52,4.05733832 L51.6472185,4.05733832 L51.5766621,3.49770545 L51.5766621,3.49770545 Z" id="Path"></path>
                            <path d="M2.54002714,9.02408006 C2.46947083,8.46444719 2.11668928,8.25458486 1.55223881,8.25458486 C1.12890095,8.25458486 0.635006784,8.39449308 0.635006784,8.95412595 C0.635006784,9.44380472 1.27001357,9.51375883 1.90502035,9.65366704 C2.54002714,9.79357526 3.17503392,10.0034376 3.17503392,10.7729328 C3.17503392,11.6123821 2.32835821,11.9621526 1.62279512,11.9621526 C0.705563094,11.9621526 0,11.542428 0,10.5630705 L0.493894166,10.5630705 C0.493894166,11.1926574 1.05834464,11.4724739 1.62279512,11.4724739 C2.11668928,11.4724739 2.61058345,11.3325657 2.61058345,10.7729328 C2.61058345,10.2132999 1.97557666,10.1433458 1.34056988,10.0034376 C0.705563094,9.86352937 0.0705563094,9.65366704 0.0705563094,8.95412595 C0.0705563094,8.18463076 0.776119403,7.83486021 1.4816825,7.83486021 C2.2578019,7.83486021 2.89280868,8.18463076 2.96336499,9.09403417 L2.54002714,9.09403417 L2.54002714,9.02408006 L2.54002714,9.02408006 Z" id="Path"></path>
                            <polygon id="Path" points="4.65671642 8.32453897 3.31614654 8.32453897 3.31614654 7.90481432 6.49118046 7.90481432 6.49118046 8.32453897 5.15061058 8.32453897 5.15061058 11.8222444 4.65671642 11.8222444"></polygon>
                            <path d="M7.62008141,7.90481432 L8.18453189,7.90481432 L9.73677069,11.8222444 L9.17232022,11.8222444 L8.74898236,10.6330246 L7.05563094,10.6330246 L6.63229308,11.8222444 L6.06784261,11.8222444 L7.62008141,7.90481432 Z M7.19674355,10.2132999 L8.53731343,10.2132999 L7.90230665,8.39449308 L7.90230665,8.39449308 L7.19674355,10.2132999 Z" id="Shape"></path>
                            <path d="M11.2890095,7.90481432 L11.85346,7.90481432 L13.4056988,11.8222444 L12.8412483,11.8222444 L12.4179104,10.6330246 L10.724559,10.6330246 L10.3012212,11.8222444 L9.73677069,11.8222444 L11.2890095,7.90481432 L11.2890095,7.90481432 Z M10.8656716,10.2132999 L12.2062415,10.2132999 L11.5712347,8.39449308 L11.5712347,8.39449308 L10.8656716,10.2132999 L10.8656716,10.2132999 Z" id="Shape"></path>
                            <polygon id="Path" points="14.3229308 8.32453897 12.9823609 8.32453897 12.9823609 7.90481432 16.1573948 7.90481432 16.1573948 8.32453897 14.816825 8.32453897 14.816825 11.8222444 14.3229308 11.8222444 14.3229308 8.32453897"></polygon>
                            <polygon id="Path" points="18.3446404 7.90481432 20.9552239 7.90481432 20.9552239 8.32453897 18.9090909 8.32453897 18.9090909 9.58371294 20.743555 9.58371294 20.743555 10.0034376 18.9090909 10.0034376 18.9090909 11.8222444 18.4151967 11.8222444 18.4151967 7.90481432"></polygon>
                            <path d="M21.5902307,7.90481432 L23.4246947,7.90481432 C24.1302578,7.90481432 24.624152,8.32453897 24.624152,8.95412595 C24.624152,9.44380472 24.412483,9.79357526 23.9185889,9.93348348 L23.9185889,9.93348348 C24.3419267,10.0034376 24.4830393,10.3532081 24.4830393,10.7729328 C24.4830393,11.1227033 24.4830393,11.6123821 24.6947083,11.8222444 L24.1302578,11.8222444 C23.9891452,11.6823362 24.0597015,11.2626116 23.9891452,10.8428869 C23.9185889,10.4931164 23.8480326,10.1433458 23.3541384,10.1433458 L22.0841248,10.1433458 L22.0841248,11.8222444 L21.5902307,11.8222444 C21.5902307,11.8222444 21.5902307,7.90481432 21.5902307,7.90481432 Z M23.2130258,9.72362115 C23.7069199,9.72362115 24.1302578,9.58371294 24.1302578,9.02408006 C24.1302578,8.67430952 23.9185889,8.32453897 23.4246947,8.32453897 L22.1546811,8.32453897 L22.1546811,9.65366704 L23.2130258,9.65366704 L23.2130258,9.72362115 L23.2130258,9.72362115 Z" id="Shape"></path>
                            <polygon id="Path" points="25.4708277 7.90481432 28.2225237 7.90481432 28.2225237 8.32453897 26.0352782 8.32453897 26.0352782 9.58371294 28.0814111 9.58371294 28.0814111 10.0034376 26.0352782 10.0034376 26.0352782 11.3325657 28.2225237 11.3325657 28.2225237 11.7522903 25.4708277 11.7522903"></polygon>
                            <polygon id="Path" points="28.9986431 7.90481432 29.4925373 7.90481432 29.4925373 11.8222444 28.9986431 11.8222444"></polygon>
                            <path d="M30.4803256,7.90481432 L31.8914518,7.90481432 C32.2442334,7.90481432 32.6675712,7.90481432 32.9497965,8.04472254 C33.2320217,8.18463076 33.4436906,8.46444719 33.4436906,8.88417185 C33.4436906,9.3038965 33.2320217,9.58371294 32.8792402,9.79357526 L32.8792402,9.79357526 C33.3731343,9.86352937 33.6553596,10.283254 33.6553596,10.7029787 C33.6553596,11.2626116 33.2320217,11.8222444 32.4559023,11.8222444 L30.550882,11.8222444 L30.550882,7.90481432 L30.4803256,7.90481432 Z M31.0447761,9.58371294 L32.1031208,9.58371294 C32.6675712,9.58371294 32.9497965,9.37385061 32.9497965,8.95412595 C32.9497965,8.39449308 32.5970149,8.32453897 32.1031208,8.32453897 L31.0447761,8.32453897 L31.0447761,9.58371294 Z M31.0447761,11.4025198 L32.385346,11.4025198 C32.8086839,11.4025198 33.0909091,11.1227033 33.0909091,10.7029787 C33.0909091,10.2132999 32.6675712,10.0733917 32.2442334,10.0733917 L31.0447761,10.0733917 L31.0447761,11.4025198 L31.0447761,11.4025198 Z" id="Shape"></path>
                            <path d="M37.5359566,10.4231622 C37.5359566,11.4025198 36.9715061,11.9621526 35.9837178,11.9621526 C34.9959294,11.9621526 34.3609227,11.4724739 34.3609227,10.4231622 L34.3609227,7.90481432 L34.8548168,7.90481432 L34.8548168,10.4231622 C34.8548168,11.1227033 35.2781547,11.4724739 35.9131615,11.4724739 C36.5481682,11.4724739 36.9715061,11.1227033 36.9715061,10.4231622 L36.9715061,7.90481432 L37.4654003,7.90481432 L37.4654003,10.4231622 L37.5359566,10.4231622 L37.5359566,10.4231622 Z" id="Path"></path>
                            <path d="M38.4531886,7.90481432 L40.2876526,7.90481432 C40.9932157,7.90481432 41.4871099,8.32453897 41.4871099,8.95412595 C41.4871099,9.44380472 41.275441,9.79357526 40.7815468,9.93348348 L40.7815468,9.93348348 C41.2048847,10.0034376 41.3459973,10.3532081 41.3459973,10.7729328 C41.3459973,11.1227033 41.3459973,11.6123821 41.5576662,11.8222444 L40.9932157,11.8222444 C40.8521031,11.6823362 40.9226594,11.2626116 40.8521031,10.8428869 C40.7815468,10.4931164 40.7109905,10.1433458 40.2170963,10.1433458 L38.9470828,10.1433458 L38.9470828,11.8222444 L38.4531886,11.8222444 C38.4531886,11.8222444 38.4531886,7.90481432 38.4531886,7.90481432 Z M40.0759837,9.72362115 C40.5698779,9.72362115 40.9932157,9.58371294 40.9932157,9.02408006 C40.9932157,8.67430952 40.7815468,8.32453897 40.2876526,8.32453897 L39.0176391,8.32453897 L39.0176391,9.65366704 L40.0759837,9.65366704 L40.0759837,9.72362115 Z" id="Shape"></path>
                            <path d="M45.2971506,11.3325657 C45.0149254,11.7522903 44.5210312,11.8921985 44.027137,11.8921985 C42.8276798,11.8921985 42.1221167,10.912841 42.1221167,9.93348348 C42.1221167,8.81421774 42.7571235,7.83486021 44.027137,7.83486021 C44.8738128,7.83486021 45.5793758,8.18463076 45.7204885,9.16398828 L45.2265943,9.16398828 C45.156038,8.60435541 44.6621438,8.32453897 44.027137,8.32453897 C43.0393487,8.32453897 42.6865672,9.16398828 42.6865672,10.0034376 C42.6865672,10.8428869 43.1804613,11.542428 44.027137,11.542428 C44.8738128,11.542428 45.2971506,10.9827951 45.2971506,10.283254 L44.027137,10.283254 L44.027137,9.86352937 L45.7204885,9.86352937 L45.7204885,11.8921985 L45.3677069,11.8921985 L45.2971506,11.3325657 L45.2971506,11.3325657 Z" id="Path"></path>
                            <polygon id="Path" points="2.75169607 19.6571046 2.39891452 19.6571046 1.76390773 17.4185731 1.76390773 17.4185731 1.12890095 19.6571046 0.776119403 19.6571046 0.0705563094 16.9988485 0.423337856 16.9988485 0.987788331 19.1674259 0.987788331 19.1674259 1.62279512 16.9288944 2.04613297 16.9288944 2.54002714 19.1674259 2.54002714 19.1674259 3.10447761 16.9288944 3.45725916 16.9288944"></polygon>
                            <polygon id="Path" points="6.35006784 19.6571046 5.9972863 19.6571046 5.36227951 17.4185731 5.36227951 17.4185731 4.72727273 19.6571046 4.37449118 19.6571046 3.66892809 16.9988485 4.02170963 16.9988485 4.58616011 19.1674259 4.58616011 19.1674259 5.22116689 16.9288944 5.64450475 16.9288944 6.13839891 19.1674259 6.13839891 19.1674259 6.70284939 16.9288944 7.05563094 16.9288944"></polygon>
                            <polygon id="Path" points="9.94843962 19.6571046 9.59565807 19.6571046 8.96065129 17.4185731 8.96065129 17.4185731 8.3256445 19.6571046 7.97286296 19.6571046 7.26729986 16.9988485 7.62008141 16.9988485 8.18453189 19.23738 8.18453189 19.23738 8.81953867 16.9988485 9.24287653 16.9988485 9.807327 19.23738 9.807327 19.23738 10.3717775 16.9988485 10.6540027 16.9988485 9.94843962 19.6571046"></polygon>
                            <polygon id="Path" points="10.7951153 19.23738 11.2184532 19.23738 11.2184532 19.6571046 10.7951153 19.6571046"></polygon>
                            <polygon id="Path" points="11.9240163 16.9288944 13.687924 16.9288944 13.687924 17.2087108 12.2767978 17.2087108 12.2767978 18.0481601 13.5468114 18.0481601 13.5468114 18.3279766 12.2767978 18.3279766 12.2767978 19.5871505 11.9240163 19.5871505 11.9240163 16.9288944"></polygon>
                            <path d="M14.1818182,16.9288944 L15.4518318,16.9288944 C15.9457259,16.9288944 16.2985075,17.2087108 16.2985075,17.6284355 C16.2985075,17.978206 16.1573948,18.1880683 15.8046133,18.3279766 L15.8046133,18.3279766 C16.0868385,18.3979307 16.1573948,18.607793 16.2279512,18.8876094 C16.2279512,19.1674259 16.2279512,19.4472423 16.3690638,19.6571046 L15.9457259,19.6571046 C15.8751696,19.5171964 15.8751696,19.23738 15.8751696,19.0275177 C15.8046133,18.7477012 15.8046133,18.5378389 15.4518318,18.5378389 L14.605156,18.5378389 L14.605156,19.6571046 L14.1818182,19.6571046 L14.1818182,16.9288944 L14.1818182,16.9288944 Z M15.3107191,18.1880683 C15.6635007,18.1880683 15.9457259,18.1181142 15.9457259,17.6983896 C15.9457259,17.4185731 15.8046133,17.2087108 15.4518318,17.2087108 L14.5345997,17.2087108 L14.5345997,18.1181142 L15.3107191,18.1181142 L15.3107191,18.1880683 L15.3107191,18.1880683 Z" id="Shape"></path>
                            <polygon id="Path" points="16.8629579 19.23738 17.2862958 19.23738 17.2862958 19.6571046 16.8629579 19.6571046"></polygon>
                            <path d="M19.8968792,17.7683437 C19.8263229,17.4185731 19.5440977,17.2087108 19.1207598,17.2087108 C18.4857531,17.2087108 18.2035278,17.7683437 18.2035278,18.3279766 C18.2035278,18.9575635 18.4857531,19.4472423 19.1207598,19.4472423 C19.614654,19.4472423 19.8968792,19.0974718 19.8968792,18.6777471 L20.2496608,18.6777471 C20.1791045,19.3772882 19.7557666,19.7270587 19.0502035,19.7270587 C18.2035278,19.7270587 17.78019,19.0974718 17.78019,18.3279766 C17.78019,17.5584814 18.2035278,16.9288944 19.0502035,16.9288944 C19.614654,16.9288944 20.1085482,17.2087108 20.1791045,17.7683437 C20.1791045,17.7683437 19.8968792,17.7683437 19.8968792,17.7683437 L19.8968792,17.7683437 Z" id="Path"></path>
                            <path d="M20.8141113,16.9288944 L21.1668928,16.9288944 L21.1668928,18.0481601 L22.578019,18.0481601 L22.578019,16.9288944 L22.9308005,16.9288944 L22.9308005,19.5871505 L22.578019,19.5871505 L22.578019,18.3279766 L21.1668928,18.3279766 L21.1668928,19.5871505 L20.8141113,19.5871505 C20.8141113,19.5871505 20.8141113,16.9288944 20.8141113,16.9288944 Z" id="Path"></path>
                        </g>
                    </g>
                </g>
            </g>
        </g>
    </g>
</svg>