<?xml version="1.0" encoding="UTF-8"?>
<svg width="89px" height="31px" viewBox="0 0 89 31" version="1.1" xmlns="http://www.w3.org/2000/svg" xmlns:xlink="http://www.w3.org/1999/xlink">
    <title>fri-son-white</title>
    <g id="home-page-eikonica-scroll-horizontal" stroke="none" stroke-width="1" fill="none" fill-rule="evenodd">
        <g id="Small" transform="translate(-1091, -740)" fill="#FFFFFF" fill-rule="nonzero">
            <g id="contact-copy" transform="translate(67, 717)">
                <g id="footer-logo" transform="translate(792, 13)">
                    <g id="fri-son-white" transform="translate(232, 10)">
                        <g id="Group" transform="translate(0, 0)">
                            <path d="M60.4588658,12.0872982 C56.3269768,12.0872982 52.84375,14.7359623 51.5464257,18.4077725 C50.8622204,16.4854979 49.5826677,14.837834 47.9165835,13.7128161 C46.5481729,12.7871124 45.646266,11.236891 45.646266,9.47849693 C45.646266,6.6880983 47.9521266,4.41148736 50.7689197,4.41148736 L50.7689197,0.0398628375 C45.5440795,0.0398628375 41.270018,4.2431776 41.270018,9.47849693 C41.270018,12.733962 42.9227736,15.6129447 45.4330072,17.3181883 L45.4330072,17.3181883 C46.8058606,18.243892 47.7122105,19.8029719 47.7122105,21.5657951 C47.7122105,24.3517645 45.4063498,26.6328047 42.5895567,26.6328047 C39.7727636,26.6328047 37.506889,24.3517645 37.506889,21.5657951 L33.1217552,21.5657951 C33.1217552,26.7568224 37.3780451,31 42.5895567,31 C46.7170028,31 50.2446585,28.3690527 51.5508686,24.6883841 C52.8526358,28.3557651 56.36252,31 60.4633087,31 C65.6925919,31 69.9710962,26.7966852 69.9710962,21.5613659 C69.9710962,16.3304758 65.7103634,12.082869 60.4633087,12.082869 M60.4633087,26.6283755 C57.66873,26.6283755 55.380641,24.3473353 55.380641,21.5613659 C55.380641,18.7753965 57.66873,16.4544935 60.4633087,16.4544935 C63.2578874,16.4544935 65.5859625,18.7532505 65.5859625,21.5613659 C65.5859625,24.3694814 63.2845447,26.6283755 60.4633087,26.6283755" id="Shape"></path>
                            <path d="M84.5571086,30.5836548 L89,30.5836548 L89,21.5702243 C89,16.3393342 84.6859525,12.0917274 79.4744409,12.0917274 C74.2629293,12.0917274 69.9666534,16.3393342 69.9666534,21.5702243 L69.9666534,30.5969424 L74.3517871,30.5969424 L74.3517871,21.5702243 C74.3517871,18.7842549 76.6576478,16.4633519 79.4744409,16.4633519 C82.291234,16.4633519 84.5571086,18.7842549 84.5571086,21.5702243 L84.5571086,30.5836548 L84.5571086,30.5836548 L84.5571086,30.5836548 Z" id="Path"></path>
                            <path d="M25.6399261,11.6886698 L25.6399261,11.6886698 C22.7253894,11.6886698 20.1085264,13.0262895 18.3713558,15.1080154 C16.6297424,13.0262895 14.0084365,11.6886698 11.0938998,11.6886698 L9.91653355,11.6886698 L9.91653355,9.43863409 C9.91653355,6.65266467 12.2223942,4.37162452 15.0391873,4.37162452 L15.0391873,0 C9.80990415,0 5.52695687,4.20774396 5.52695687,9.43863409 L5.52695687,11.6886698 L0,11.6886698 L0,16.0602943 L5.52695687,16.0602943 L5.52695687,30.6190884 L9.91209065,30.6190884 L9.91209065,16.0602943 L11.0894569,16.0602943 C13.8929213,16.0602943 16.1721246,18.3324761 16.1721246,21.1273039 L16.1721246,30.5969424 L20.5572584,30.5969424 L20.5572584,21.1273039 C20.5572584,18.3324761 22.8453474,16.0602943 25.6399261,16.0602943 L26.8172923,16.0602943 L26.8172923,30.6013716 L31.2024261,30.6013716 L31.2024261,11.6886698 L25.6399261,11.6886698 Z" id="Path"></path>
                            <polygon id="Path" points="40.0748802 11.6886698 33.0995407 16.0558651 33.0995407 20.5382197 40.0748802 16.2773253"></polygon>
                        </g>
                        <rect id="Rectangle" x="26.8172923" y="0.0442920417" width="4.38069089" height="10.4662095"></rect>
                    </g>
                </g>
            </g>
        </g>
    </g>
</svg>