<?xml version="1.0" encoding="UTF-8"?>
<svg width="130px" height="45px" viewBox="0 0 130 45" version="1.1" xmlns="http://www.w3.org/2000/svg" xmlns:xlink="http://www.w3.org/1999/xlink">
    <title>loterie-romande-white</title>
    <g id="home-page-eikonica-scroll-horizontal" stroke="none" stroke-width="1" fill="none" fill-rule="evenodd">
        <g id="Small" transform="translate(-859, -733)" fill="#FFFFFF" fill-rule="nonzero">
            <g id="contact-copy" transform="translate(67, 717)">
                <g id="footer-logo" transform="translate(792, 13)">
                    <g id="loterie-romande-white" transform="translate(0, 3)">
                        <path d="M9.51666961,20.4731781 C9.51666961,15.48583 13.5526548,11.409413 18.5288411,11.409413 C23.5050273,11.409413 27.5639443,15.48583 27.5639443,20.4731781 C27.5639443,25.4605263 23.5050273,29.514265 18.5288411,29.514265 C13.5755865,29.5369433 9.51666961,25.4605263 9.51666961,20.4731781 Z M130,0 L130,45 L0,45 L0,0 L130,0 Z M4.28823426,17.5809717 C4.28823426,25.4149798 10.6632563,31.7687247 18.5517728,31.7687247 C26.4402893,31.7687247 32.8153113,25.4149798 32.8153113,17.5809717 C32.8153113,9.74696356 26.4402893,3.37044534 18.5517728,3.37044534 C10.6632563,3.37044534 4.28823426,9.72419028 4.28823426,17.5809717 Z M0.986064562,7.28744939 C2.45369554,4.78238866 4.47168813,2.6417004 6.83365673,0.979251012 L0.986064562,0.979251012 L0.986064562,7.28744939 Z M129.013935,0.979251012 L30.2698889,0.979251012 C35.521256,4.64574899 38.9380843,10.7034413 38.9380843,17.5809717 C38.9380843,28.7854251 29.8112542,37.8719636 18.5517728,37.8719636 C11.0760275,37.8719636 4.54048333,33.8638664 0.986064562,27.8744939 L0.986064562,44.020749 L129.013935,44.020749 L129.013935,0.979251012 Z M57.8338331,9.08653846 L61.4341154,9.08653846 L61.4341154,16.5789474 L64.9656024,16.5789474 L64.9656024,19.6305668 L57.8338331,19.6305668 L57.8338331,9.08653846 L57.8338331,9.08653846 L57.8338331,9.08653846 Z M66.2727112,14.3016194 C66.2727112,13.4590081 66.4332334,12.6847166 66.7313459,12.0015182 C67.0294585,11.3183198 67.4422297,10.7489879 67.9696596,10.270749 C68.4970894,9.79251012 69.1162463,9.42813765 69.8500617,9.17763158 C70.5609455,8.92712551 71.3406244,8.79048583 72.1890986,8.79048583 C73.0375728,8.79048583 73.8172517,8.92712551 74.5281355,9.17763158 C75.2390192,9.42813765 75.8811078,9.8152834 76.4085377,10.270749 C76.9359675,10.7489879 77.3487388,11.3183198 77.6468513,12.0015182 C77.9449638,12.6847166 78.105486,13.4590081 78.105486,14.3016194 C78.105486,15.1442308 77.9449638,15.9185223 77.6468513,16.6244939 C77.3487388,17.3304656 76.9359675,17.9225709 76.4085377,18.4008097 C75.8811078,18.9018219 75.261951,19.2661943 74.5281355,19.5394737 C73.8172517,19.812753 73.014641,19.9493927 72.1890986,19.9493927 C71.3635562,19.9493927 70.5609455,19.812753 69.8500617,19.5394737 C69.139178,19.2661943 68.4970894,18.9018219 67.9696596,18.4008097 C67.4422297,17.8997976 67.0294585,17.3076923 66.7313459,16.6244939 C66.4332334,15.9185223 66.2727112,15.1442308 66.2727112,14.3016194 Z M70.0793791,14.3016194 C70.0793791,14.6432186 70.1252425,14.9620445 70.2399012,15.2580972 C70.3545599,15.5541498 70.4921503,15.8046559 70.6756042,16.0096154 C70.859058,16.2145749 71.0883754,16.3739879 71.3406244,16.4878543 C71.5928735,16.6017206 71.8909861,16.6700405 72.1890986,16.6700405 C72.4872111,16.6700405 72.762392,16.6244939 73.014641,16.4878543 C73.2668901,16.3739879 73.4962074,16.2145749 73.6796613,16.0096154 C73.8631152,15.8046559 74.0236373,15.5541498 74.1153643,15.2580972 C74.2300229,14.9620445 74.2758864,14.6432186 74.2758864,14.3016194 C74.2758864,13.9600202 74.2300229,13.6639676 74.1153643,13.367915 C74.0007056,13.0946356 73.8631152,12.8441296 73.6796613,12.6619433 C73.4962074,12.4797571 73.2668901,12.3203441 73.014641,12.2064777 C72.762392,12.0926113 72.4872111,12.0470648 72.1890986,12.0470648 C71.8909861,12.0470648 71.6158053,12.0926113 71.3406244,12.2064777 C71.0883754,12.3203441 70.859058,12.4797571 70.6756042,12.6619433 C70.4921503,12.8441296 70.3545599,13.0946356 70.2399012,13.367915 C70.1481743,13.6639676 70.0793791,13.9600202 70.0793791,14.3016194 Z M85.4665726,19.6533401 L81.8892221,19.6533401 L81.8892221,12.0698381 L79.2750044,12.0698381 L79.2750044,9.08653846 L88.0807903,9.08653846 L88.0807903,12.0698381 L85.4665726,12.0698381 L85.4665726,19.6533401 Z M90.0529194,9.08653846 L97.3681425,9.08653846 L97.3681425,12.0470648 L93.4238843,12.0470648 L93.4238843,12.957996 L97.1388252,12.957996 L97.1388252,15.7135628 L93.4238843,15.7135628 L93.4238843,16.6928138 L97.6433233,16.6928138 L97.6433233,19.6533401 L90.0758511,19.6533401 L90.0758511,9.08653846 L90.0529194,9.08653846 L90.0529194,9.08653846 Z M100.005292,9.08653846 L104.591639,9.08653846 C105.119069,9.08653846 105.623567,9.13208502 106.150997,9.24595142 C106.678427,9.35981781 107.137061,9.54200405 107.526901,9.79251012 C107.939672,10.0657895 108.260716,10.4073887 108.512965,10.8628543 C108.765214,11.2955466 108.879873,11.8648785 108.879873,12.5253036 C108.879873,13.1857287 108.719351,13.7322874 108.398307,14.2332996 C108.077262,14.7343117 107.618628,15.0986842 107.022403,15.3719636 L109.728347,19.6533401 L105.623567,19.6533401 L103.582642,15.8729757 L103.467984,15.8729757 L103.467984,19.6533401 L100.005292,19.6533401 L100.005292,9.08653846 L100.005292,9.08653846 L100.005292,9.08653846 Z M103.445052,13.5501012 L104.155936,13.5501012 C104.270594,13.5501012 104.408185,13.5501012 104.545775,13.5273279 C104.683366,13.5045547 104.820956,13.4590081 104.958546,13.3906883 C105.073205,13.3223684 105.187864,13.2312753 105.279591,13.1174089 C105.371318,13.0035425 105.417181,12.8441296 105.417181,12.6619433 C105.417181,12.4797571 105.371318,12.3203441 105.302522,12.2064777 C105.233727,12.0926113 105.142,12.0242915 105.027342,11.9559717 C104.912683,11.9104251 104.798024,11.8648785 104.683366,11.8421053 C104.545775,11.819332 104.431117,11.819332 104.316458,11.819332 L103.467984,11.819332 L103.467984,13.5501012 L103.445052,13.5501012 L103.445052,13.5501012 Z M111.058388,9.08653846 L114.65867,9.08653846 L114.65867,19.6533401 L111.058388,19.6533401 L111.058388,9.08653846 Z M116.928912,9.08653846 L124.244135,9.08653846 L124.244135,12.0470648 L120.299877,12.0470648 L120.299877,12.957996 L124.014817,12.957996 L124.014817,15.7135628 L120.299877,15.7135628 L120.299877,16.6928138 L124.519316,16.6928138 L124.519316,19.6533401 L116.951843,19.6533401 L116.951843,9.08653846 L116.928912,9.08653846 L116.928912,9.08653846 Z M41.9192097,24.5040486 L46.4826248,24.5040486 C47.0100547,24.5040486 47.5145528,24.5495951 48.0419827,24.6634615 C48.5464809,24.7773279 49.0051155,24.9595142 49.4178868,25.2100202 C49.830658,25.4832996 50.1517022,25.8248988 50.4039513,26.2803644 C50.6562004,26.7130567 50.7708591,27.2823887 50.7708591,27.9428138 C50.7708591,28.6032389 50.6103369,29.1497976 50.2892926,29.6508097 C49.9682484,30.1518219 49.5096137,30.5161943 48.9133886,30.7894737 L51.5964015,35.0708502 L47.4916211,35.0708502 L45.4506968,31.3132591 L45.3360381,31.3132591 L45.3360381,35.0708502 L41.8733463,35.0708502 L41.8733463,24.5040486 L41.9192097,24.5040486 Z M45.3589698,28.9448381 L46.0469219,28.9448381 C46.1615805,28.9448381 46.2991709,28.9448381 46.4367613,28.9220648 C46.5743517,28.8992915 46.7119421,28.8537449 46.8266008,28.7854251 C46.9412595,28.7171053 47.0559182,28.6260121 47.1476451,28.5121457 C47.239372,28.3982794 47.2623038,28.2388664 47.2623038,28.0566802 C47.2623038,27.8744939 47.2164403,27.715081 47.1476451,27.6012146 C47.0788499,27.4873482 46.9871229,27.4190283 46.8724643,27.3507085 C46.7578056,27.3051619 46.6431469,27.2596154 46.5055565,27.2368421 C46.3679661,27.2140688 46.2533075,27.2140688 46.1386488,27.2140688 L45.2901746,27.2140688 L45.2901746,28.9448381 L45.3589698,28.9448381 L45.3589698,28.9448381 Z M52.1926266,29.7191296 C52.1926266,28.8765182 52.3531487,28.125 52.6512612,27.4418016 C52.9493738,26.7586032 53.362145,26.1892713 53.8895749,25.7110324 C54.4170048,25.2327935 55.0361616,24.8684211 55.7470453,24.617915 C56.4579291,24.3674089 57.2605398,24.2307692 58.0860822,24.2307692 C58.9116246,24.2307692 59.7142353,24.3674089 60.4251191,24.617915 C61.1360028,24.8684211 61.7780914,25.2327935 62.3055213,25.7110324 C62.8329511,26.1892713 63.2457223,26.7586032 63.5438349,27.4418016 C63.8419474,28.125 64.0024696,28.8765182 64.0024696,29.7191296 C64.0024696,30.5617409 63.8419474,31.3360324 63.5438349,32.0192308 C63.2457223,32.7252024 62.8329511,33.3173077 62.3055213,33.7955466 C61.7780914,34.2965587 61.1589346,34.6609312 60.4251191,34.9342105 C59.7142353,35.2074899 58.9345564,35.3441296 58.0860822,35.3441296 C57.237608,35.3441296 56.4579291,35.2074899 55.7470453,34.9342105 C55.0361616,34.6609312 54.4170048,34.2965587 53.8895749,33.7955466 C53.362145,33.2945344 52.9493738,32.7024291 52.6512612,32.0192308 C52.330217,31.3360324 52.1926266,30.5617409 52.1926266,29.7191296 Z M55.9763627,29.7191296 C55.9763627,30.0607287 56.0222261,30.3795547 56.1368848,30.6756073 C56.2515435,30.9716599 56.3891339,31.222166 56.5725878,31.4271255 C56.7560416,31.632085 56.985359,31.791498 57.237608,31.9053644 C57.4898571,32.0192308 57.7879697,32.0875506 58.0860822,32.0875506 C58.3841947,32.0875506 58.6593756,32.0192308 58.9116246,31.9053644 C59.1638737,31.791498 59.393191,31.632085 59.5766449,31.4271255 C59.7600988,31.222166 59.9206209,30.9716599 60.0123479,30.6756073 C60.1040748,30.3795547 60.17287,30.0607287 60.17287,29.7191296 C60.17287,29.3775304 60.1270065,29.0814777 60.0123479,28.7854251 C59.8976892,28.5121457 59.7600988,28.2616397 59.5766449,28.0794534 C59.393191,27.8972672 59.1638737,27.7378543 58.9116246,27.6239879 C58.6593756,27.5101215 58.3841947,27.4645749 58.0860822,27.4645749 C57.7879697,27.4645749 57.5127889,27.5101215 57.237608,27.6239879 C56.985359,27.7378543 56.7560416,27.8972672 56.5725878,28.0794534 C56.3891339,28.284413 56.2515435,28.5121457 56.1368848,28.7854251 C56.0222261,29.0587045 55.9763627,29.3775304 55.9763627,29.7191296 L55.9763627,29.7191296 Z M68.6576116,29.0814777 L68.8181337,35.0480769 L65.4930323,35.0480769 L65.4930323,24.5040486 L70.171106,24.5040486 L72.0973717,30.1745951 L72.1661669,30.1745951 L73.8401835,24.5040486 L78.6558476,24.5040486 L78.6558476,35.0480769 L75.170224,35.0480769 L75.2848827,29.1270243 L75.1931558,29.104251 L73.2210266,35.0480769 L70.6985359,35.0480769 L68.7493385,29.0814777 L68.6576116,29.0814777 L68.6576116,29.0814777 Z M84.0906685,24.5040486 L87.8744047,24.5040486 L92.0021168,35.0480769 L88.1266537,35.0480769 L87.5762921,33.4994939 L84.2053272,33.4994939 L83.6778973,35.0480769 L79.8941612,35.0480769 L84.0906685,24.5040486 L84.0906685,24.5040486 Z M85.9252073,28.1705466 L85.0538014,30.7894737 L86.7736814,30.7894737 L85.9252073,28.1705466 Z M93.2862939,24.5040486 L96.8407126,24.5040486 L99.8677015,29.8557692 L99.9364967,29.8557692 L99.7989063,24.5040486 L103.192803,24.5040486 L103.192803,35.0480769 L99.5237255,35.0480769 L96.5884636,30.0151822 L96.5196684,30.0151822 L96.6801905,35.0480769 L93.2862939,35.0480769 L93.2862939,24.5040486 L93.2862939,24.5040486 L93.2862939,24.5040486 Z M105.142,35.0480769 L105.142,24.5040486 L109.10919,24.5040486 C109.957664,24.5040486 110.760275,24.5951417 111.517022,24.7545547 C112.27377,24.9139676 112.961722,25.2100202 113.535015,25.597166 C114.13124,26.007085 114.589875,26.5308704 114.933851,27.1912955 C115.277827,27.8517206 115.461281,28.694332 115.461281,29.6963563 C115.461281,30.6300607 115.300759,31.4271255 114.956783,32.0875506 C114.612806,32.770749 114.177104,33.3173077 113.60381,33.75 C113.053449,34.1826923 112.388428,34.5015182 111.677545,34.7064777 C110.943729,34.9114372 110.186982,35.0253036 109.407303,35.0253036 L105.142,35.0253036 L105.142,35.0480769 L105.142,35.0480769 Z M108.58176,27.5101215 L108.58176,31.9964575 L109.246781,31.9964575 C110.095255,31.9964575 110.737343,31.8142713 111.173046,31.4498988 C111.631681,31.0855263 111.838067,30.4934211 111.838067,29.673583 C111.838067,28.9903846 111.608749,28.4665992 111.173046,28.0794534 C110.714412,27.6923077 110.118187,27.5101215 109.361439,27.5101215 L108.58176,27.5101215 L108.58176,27.5101215 Z M116.951843,24.5040486 L124.244135,24.5040486 L124.244135,27.4418016 L120.299877,27.4418016 L120.299877,28.3527328 L123.991886,28.3527328 L123.991886,31.1082996 L120.299877,31.1082996 L120.299877,32.0875506 L124.519316,32.0875506 L124.519316,35.0253036 L116.951843,35.0253036 L116.951843,24.5040486 L116.951843,24.5040486 Z" id="Shape"></path>
                    </g>
                </g>
            </g>
        </g>
    </g>
</svg>