<?xml version="1.0" encoding="UTF-8"?>
<svg width="28px" height="28px" viewBox="0 0 28 28" version="1.1" xmlns="http://www.w3.org/2000/svg" xmlns:xlink="http://www.w3.org/1999/xlink">
    <title>Fill 1</title>
    <g id="home-page-eikonica-scroll-horizontal" stroke="none" stroke-width="1" fill="none" fill-rule="evenodd">
        <g id="Medium-scroll-vertical" transform="translate(-730, -4590)" fill="#FFFFFF">
            <g id="main" transform="translate(0, 1602)">
                <g id="partenaires" transform="translate(60, 2869)">
                    <g id="Fill-1" transform="translate(670, 119)">
                        <path d="M28,2.35156727 C28,1.65884727 27.7903691,1.09375636 27.3710945,0.656243636 C26.95182,0.218743636 26.3776036,0 25.6484327,0 C24.9557255,0 24.3997473,0.218743636 23.9804727,0.656243636 C23.5611982,1.09375636 23.3515673,1.65884727 23.3515673,2.35156727 L23.3515673,20.0703122 L3.99218782,0.710932727 C3.51822673,0.236981818 2.97135745,0 2.35156218,0 C1.73176818,0 1.18489815,0.236981818 0.710937564,0.710932727 C0.236976855,1.18489636 0,1.73176182 0,2.35156727 C0,2.97136 0.236976855,3.51822545 0.710937564,3.99218909 L20.0703109,23.3515622 L2.35156218,23.3515622 C1.62239255,23.3515622 1.04817924,23.5611956 0.628906218,23.9804689 C0.209633327,24.3997422 0,24.9739547 0,25.7031244 C0,26.3958367 0.209633327,26.9518208 0.628906218,27.3710938 C1.04817924,27.7903667 1.62239255,28 2.35156218,28 L25.6484327,28 C25.7942745,28 25.9583291,27.9908855 26.1406218,27.9726562 C26.3229145,27.954427 26.4687436,27.8906255 26.5781218,27.78125 C26.8333291,27.6718745 27.0703109,27.5078136 27.2890673,27.2890624 C27.5078109,27.0703114 27.6718782,26.8515636 27.7812436,26.6328122 C27.8906218,26.5234365 27.9544236,26.3684909 27.9726618,26.1679689 C27.9908873,25.9674469 28,25.8125 28,25.7031244 L28,2.35156727 Z"></path>
                    </g>
                </g>
            </g>
        </g>
    </g>
</svg>